<?xml version="1.0" standalone="no"?> <!DOCTYPE svg PUBLIC "-//W3C//DTD SVG 20010904//EN" "http://www.w3.org/TR/2001/REC-SVG-20010904/DTD/svg10.dtd"> <svg version="1.0" xmlns="http://www.w3.org/2000/svg" width="201.000000pt" height="251.000000pt" viewBox="0 0 201.000000 251.000000" preserveAspectRatio="xMidYMid meet"> <g transform="translate(0.000000,251.000000) scale(0.100000,-0.100000)" fill="#0c4a6e" stroke="none"> <path d="M1019 2116 c-3 -4 -32 -8 -65 -10 -93 -6 -143 -24 -188 -67 -52 -50 -121 -101 -171 -128 -41 -22 -132 -29 -151 -12 -16 15 -144 50 -144 39 0 -6 -9 -8 -20 -5 -13 3 -20 0 -20 -10 0 -8 -4 -11 -10 -8 -6 4 -7 -1 -3 -11 4 -11 3 -15 -5 -10 -7 4 -12 -7 -14 -31 -3 -38 -4 -38 -58 -48 -72 -13 -110 -46 -110 -95 0 -39 35 -80 71 -83 10 -1 19 -4 19 -8 0 -4 9 -11 21 -14 30 -10 59 -42 59 -65 0 -21 -38 -101 -53 -111 -5 -4 -6 -12 -2 -19 5 -8 4 -11 -3 -6 -7 4 -10 -17 -10 -68 1 -47 5 -73 11 -69 6 4 8 -1 4 -10 -4 -10 -1 -17 5 -17 6 0 8 -3 5 -7 -11 -10 44 -63 65 -63 10 0 21 -7 24 -15 9 -23 99 -45 185 -45 44 0 81 -5 84 -11 4 -6 13 -8 21 -5 8 3 13 0 11 -6 -1 -7 4 -12 11 -13 6 0 11 -3 10 -7 -4 -9 44 -44 54 -40 5 1 7 -1 7 -6 -3 -20 2 -33 13 -30 7 3 18 -5 24 -16 6 -12 16 -20 24 -18 7 2 10 -3 7 -11 -3 -8 3 -24 13 -35 23 -24 48 -81 60 -139 9 -38 7 -48 -26 -110 -19 -37 -36 -79 -36 -93 -1 -14 -5 -29 -9 -35 -4 -5 -10 -30 -14 -56 -6 -41 -4 -48 22 -75 27 -28 63 -41 63 -23 0 5 7 9 15 9 8 0 33 18 55 40 66 66 109 83 190 78 69 -5 147 -36 163 -64 5 -8 13 -11 19 -8 7 4 8 2 4 -4 -11 -18 43 -36 71 -23 13 6 23 15 23 21 0 6 4 9 9 6 34 -21 41 185 7 222 -9 10 -16 22 -16 27 0 9 -44 51 -60 57 -18 6 -27 79 -16 118 12 38 51 100 73 113 7 4 10 14 7 21 -3 8 0 17 7 22 8 5 10 3 4 -7 -5 -8 7 3 27 24 19 20 39 37 45 37 6 0 17 7 24 16 11 13 24 15 74 9 55 -6 82 -6 155 0 14 1 38 3 53 3 16 1 25 6 22 12 -3 5 0 7 8 5 16 -7 128 65 120 78 -3 4 4 17 16 28 16 15 20 29 17 69 -2 31 1 51 8 53 7 2 11 30 11 73 0 59 -4 73 -24 96 -13 15 -29 25 -34 21 -6 -3 -7 -1 -3 6 4 6 0 14 -8 17 -9 3 -16 10 -16 16 0 5 5 6 10 3 6 -3 10 3 10 15 0 12 5 18 10 15 6 -3 11 -1 11 4 1 6 2 14 4 19 1 4 5 20 10 35 9 32 -16 67 -47 67 -20 0 -40 39 -28 55 14 18 1 70 -21 88 -12 9 -32 17 -46 17 -33 0 -145 -29 -160 -42 -20 -16 -71 1 -110 38 -19 19 -42 34 -50 34 -8 0 -12 4 -9 9 4 5 -13 8 -36 7 -37 -2 -48 3 -78 34 -19 20 -42 46 -50 58 -8 12 -22 22 -32 22 -10 0 -18 4 -18 9 0 21 -184 63 -201 47z m125 -47 c55 -15 115 -55 134 -89 20 -35 70 -60 121 -60 31 0 44 -6 67 -33 63 -72 95 -80 192 -48 31 10 74 22 95 25 33 6 38 4 48 -18 10 -20 9 -30 -5 -50 -33 -51 -15 -85 43 -84 30 1 50 -13 51 -35 0 -4 -20 -30 -45 -56 -25 -26 -45 -51 -45 -54 0 -3 20 -15 45 -27 76 -37 99 -120 50 -178 -22 -26 -23 -33 -13 -60 14 -37 -3 -68 -64 -112 -67 -49 -127 -58 -328 -48 -48 3 -116 -45 -175 -122 -58 -75 -83 -131 -91 -203 -8 -64 4 -85 55 -107 40 -16 61 -61 68 -140 5 -55 2 -74 -11 -95 -24 -36 -52 -31 -106 19 -41 39 -55 45 -119 56 -122 20 -181 -1 -276 -99 -45 -47 -72 -52 -81 -16 -11 45 27 198 58 232 46 49 38 141 -19 243 -30 53 -174 204 -218 228 -19 11 -66 19 -131 22 -88 6 -108 10 -155 37 -72 40 -101 89 -96 160 3 41 13 65 51 121 51 76 52 86 4 128 -22 21 -105 66 -140 78 -24 7 -23 51 2 76 13 13 33 20 59 20 43 0 92 15 102 32 4 6 4 28 2 48 -9 62 15 66 126 25 50 -19 106 -35 124 -35 40 0 107 30 155 70 20 16 41 30 47 30 6 0 21 14 34 30 35 49 90 78 161 88 92 13 179 14 224 1z"/> <path d="M1309 1918 c-6 -20 -3 -45 5 -42 6 2 20 -12 30 -31 12 -22 23 -32 29 -26 9 9 4 18 -40 65 -12 13 -19 27 -16 30 4 3 3 6 0 6 -4 0 -7 -1 -8 -2z"/> <path d="M342 1825 c-2 -25 11 -34 23 -15 5 8 11 7 21 -1 8 -6 14 -8 14 -4 0 7 -41 44 -50 45 -3 0 -7 -11 -8 -25z"/> <path d="M1387 1807 c-7 -18 18 -38 32 -24 8 8 8 14 0 24 -14 16 -25 17 -32 0z"/> <path d="M482 1744 c-28 -19 -29 -67 -2 -94 20 -20 63 -26 94 -14 23 9 20 59 -6 88 -30 32 -59 39 -86 20z m57 -48 c9 -10 8 -15 -2 -19 -16 -6 -31 3 -34 21 -4 16 22 15 36 -2z"/> <path d="M1540 1753 c-8 -3 -26 -17 -40 -31 -22 -21 -22 -23 -3 -13 20 10 21 9 14 -17 -5 -19 -2 -36 12 -59 17 -29 24 -33 61 -33 51 0 74 15 85 55 18 66 -59 125 -129 98z m66 -35 c4 4 4 1 0 -5 -5 -9 0 -13 13 -13 26 0 27 -13 4 -40 -19 -21 -67 -27 -78 -9 -4 6 -4 26 -1 44 6 31 9 33 30 25 13 -5 27 -6 32 -2z"/> <path d="M935 1669 c-4 -6 -5 -13 -2 -16 7 -7 27 6 27 18 0 12 -17 12 -25 -2z"/> <path d="M1460 1642 c0 -22 -4 -44 -10 -47 -12 -8 -13 -25 -1 -25 12 0 30 51 27 77 -4 41 -16 37 -16 -5z"/> <path d="M1373 1565 l-23 -35 24 11 c13 6 26 22 29 35 6 33 -4 30 -30 -11z"/> <path d="M657 1487 c-17 -31 -16 -82 2 -97 13 -11 58 -87 71 -120 18 -46 81 -129 122 -160 131 -101 187 -113 291 -62 89 44 152 105 232 222 56 83 70 110 70 141 0 21 -6 44 -13 51 -7 7 -42 13 -84 13 -40 1 -129 5 -198 10 -101 6 -140 4 -204 -9 -43 -9 -98 -16 -122 -16 -43 0 -116 28 -129 50 -10 17 -20 11 -38 -23z m177 -67 c25 0 75 7 113 16 95 22 439 11 451 -15 11 -22 3 -58 -20 -86 -5 -5 -19 -23 -33 -39 -13 -17 -22 -33 -19 -38 3 -4 1 -8 -4 -8 -5 0 -15 -13 -22 -30 -7 -16 -16 -27 -21 -25 -4 3 -11 0 -16 -7 -4 -8 -24 -26 -43 -42 -19 -16 -34 -33 -33 -37 2 -5 -3 -6 -10 -3 -7 2 -23 -5 -35 -16 -12 -11 -22 -19 -22 -16 0 3 -15 -1 -33 -9 -34 -14 -117 -10 -117 6 0 5 -8 9 -18 9 -10 0 -31 13 -47 30 -16 16 -31 27 -34 25 -8 -9 -101 98 -101 116 0 9 -9 24 -20 34 -11 10 -17 22 -14 27 3 5 -2 19 -12 31 -29 34 -44 65 -44 91 l0 24 55 -19 c30 -10 75 -19 99 -19z"/> <path d="M1710 1494 c0 -12 7 -15 28 -12 17 2 35 -3 47 -14 10 -10 21 -16 23 -13 10 9 -44 44 -60 39 -10 -3 -18 -1 -18 5 0 6 -4 11 -10 11 -5 0 -10 -7 -10 -16z"/> <path d="M1760 1448 c0 -10 5 -18 12 -18 6 0 28 -18 49 -41 25 -28 39 -36 45 -28 4 7 3 10 -3 6 -5 -3 -17 9 -26 28 -9 18 -26 37 -39 40 -13 4 -26 13 -30 19 -5 7 -8 4 -8 -6z"/> <path d="M567 1393 c41 -75 63 -109 63 -100 0 5 7 1 16 -8 9 -9 19 -13 23 -10 3 4 -2 11 -12 17 -10 5 -22 19 -28 31 -12 28 -29 56 -51 81 -10 11 -18 23 -18 28 0 4 -4 8 -10 8 -5 0 2 -21 17 -47z"/> <path d="M707 1189 c4 -13 9 -17 15 -11 11 11 3 32 -12 32 -4 0 -6 -9 -3 -21z"/> <path d="M1087 896 c-6 -15 1 -26 15 -26 4 0 8 9 8 20 0 23 -15 27 -23 6z"/> <path d="M1039 853 c0 -5 -2 -16 -4 -25 -2 -10 1 -18 6 -18 5 0 9 11 9 25 0 22 -9 37 -11 18z"/> <path d="M910 726 c0 -14 5 -28 11 -31 15 -10 25 3 12 16 -6 6 -9 18 -6 25 3 8 0 14 -6 14 -6 0 -11 -11 -11 -24z"/> <path d="M952 702 c1 -26 3 -30 10 -18 5 10 5 23 -1 34 -8 14 -10 10 -9 -16z"/> <path d="M1215 671 c20 -40 35 -48 35 -19 0 27 -17 48 -37 48 -11 0 -10 -6 2 -29z"/> <path d="M897 684 c-3 -5 -8 -31 -12 -59 -6 -47 -6 -48 7 -25 8 14 17 35 20 47 6 22 -6 51 -15 37z"/> <path d="M1279 618 c-6 -13 -5 -48 1 -48 12 0 19 39 9 46 -5 3 -10 4 -10 2z"/> </g> </svg>